<?xml version="1.0" encoding="utf-8"?>
<!-- Generator: Adobe Illustrator 16.0.0, SVG Export Plug-In . SVG Version: 6.00 Build 0)  -->
<!DOCTYPE svg PUBLIC "-//W3C//DTD SVG 1.1//EN" "http://www.w3.org/Graphics/SVG/1.1/DTD/svg11.dtd">
<svg version="1.1" id="Layer_1" xmlns="http://www.w3.org/2000/svg" xmlns:xlink="http://www.w3.org/1999/xlink" x="0px" y="0px"
	 width="1200px" height="1000px" viewBox="0 0 1200 1000" enable-background="new 0 0 1200 1000" xml:space="preserve">
<g>
	<g>
		<path d="M760.464,311.366c25.133,0,45.438-20.208,45.438-45.327v-47.426c0-25.229-20.305-45.423-45.438-45.423
			c-25.023,0-45.326,20.193-45.326,45.423v47.426C715.138,291.158,735.44,311.366,760.464,311.366L760.464,311.366z
			 M760.464,311.366"/>
		<path d="M921.798,251.771h-91.422v23.034c0,38.207-30.949,69.144-69.033,69.144c-38.193,0-69.143-30.937-69.143-69.144v-23.034
			H507.817v23.034c0,38.207-30.949,69.144-69.143,69.144s-69.143-30.937-69.143-69.144v-23.034l-92.191-1.098v577.071l46.096,0.109
			h553.035l46.096-0.22L921.798,251.771z M876.472,781.869H323.437V413.092h553.035V781.869z M876.472,781.869"/>
	</g>
	<path d="M437.907,311.366c25.133,0,45.436-20.208,45.436-45.327v-47.426c0-25.229-20.303-45.423-45.436-45.423
		c-25.023,0-45.328,20.193-45.328,45.423v47.426C392.579,291.158,412.884,311.366,437.907,311.366L437.907,311.366z
		 M437.907,311.366"/>
	<path d="M447.894,662.104c9.549,5.186,31.061,13.938,52.791,13.938c27.438,0,41.375-13.253,41.375-30.045
		c0-22.636-22.389-32.706-45.547-32.706h-21.73v-37.974h20.854c17.889,0,40.168-7.023,40.168-26.23
		c0-13.609-10.865-23.706-33.473-23.706c-18.439,0-37.865,7.984-47.084,13.691l-10.756-38.386
		c13.609-8.67,40.389-17.121,70.131-17.121c48.07,0,74.85,25.463,74.85,56.412c0,24.146-13.498,43.352-41.484,52.681v0.769
		c27.217,4.829,49.168,25.435,49.168,55.424c0,39.729-35.23,68.924-92.74,68.924c-29.303,0-53.998-7.601-67.277-15.694
		L447.894,662.104z M447.894,662.104"/>
	<path d="M699.772,534.463h-0.658l-43.242,20.66l-8.781-39.839l60.363-27.768h43.572v226.526h-51.254V534.463z M699.772,534.463"/>
</g>
</svg>
