<?xml version="1.0" encoding="utf-8"?>
<!-- Generator: Adobe Illustrator 16.0.0, SVG Export Plug-In . SVG Version: 6.00 Build 0)  -->
<!DOCTYPE svg PUBLIC "-//W3C//DTD SVG 1.1//EN" "http://www.w3.org/Graphics/SVG/1.1/DTD/svg11.dtd">
<svg version="1.1" id="Layer_1" xmlns="http://www.w3.org/2000/svg" xmlns:xlink="http://www.w3.org/1999/xlink" x="0px" y="0px"
	 width="645.227px" height="654.554px" viewBox="277.34 173.19 645.227 654.554"
	 enable-background="new 277.34 173.19 645.227 654.554" xml:space="preserve">
<g>
	<g>
		<path d="M760.464,311.366c25.133,0,45.438-20.208,45.438-45.327v-47.426c0-25.229-20.306-45.423-45.438-45.423
			c-25.022,0-45.326,20.193-45.326,45.423v47.426C715.138,291.158,735.44,311.366,760.464,311.366L760.464,311.366z"/>
		<path d="M921.798,251.771h-91.422v23.034c0,38.207-30.949,69.144-69.033,69.144c-38.192,0-69.143-30.938-69.143-69.144v-23.034
			H507.817v23.034c0,38.207-30.949,69.144-69.144,69.144c-38.193,0-69.143-30.938-69.143-69.144v-23.034l-92.191-1.098v577.071
			l46.096,0.108h553.035l46.096-0.22L921.798,251.771z M876.472,781.869H323.437V413.092h553.035V781.869z"/>
	</g>
	<path d="M437.907,311.366c25.133,0,45.436-20.208,45.436-45.327v-47.426c0-25.229-20.303-45.423-45.436-45.423
		c-25.023,0-45.328,20.193-45.328,45.423v47.426C392.579,291.158,412.884,311.366,437.907,311.366L437.907,311.366z"/>
	<path d="M447.895,662.104c9.549,5.187,31.061,13.938,52.79,13.938c27.438,0,41.375-13.253,41.375-30.045
		c0-22.636-22.389-32.706-45.547-32.706h-21.729v-37.974h20.854c17.89,0,40.168-7.023,40.168-26.23
		c0-13.608-10.864-23.706-33.473-23.706c-18.439,0-37.865,7.984-47.084,13.691l-10.756-38.387
		c13.608-8.67,40.389-17.12,70.131-17.12c48.07,0,74.85,25.463,74.85,56.411c0,24.146-13.498,43.353-41.483,52.682v0.769
		c27.217,4.829,49.168,25.436,49.168,55.425c0,39.729-35.23,68.924-92.74,68.924c-29.303,0-53.998-7.602-67.277-15.694
		L447.895,662.104z"/>
	<path d="M699.771,534.463h-0.657l-43.242,20.66l-8.781-39.839l60.363-27.769h43.572v226.526h-51.255V534.463L699.771,534.463z"/>
</g>
</svg>
