<?xml version="1.0" encoding="utf-8"?>
<!-- Generator: Adobe Illustrator 16.0.0, SVG Export Plug-In . SVG Version: 6.00 Build 0)  -->
<!DOCTYPE svg PUBLIC "-//W3C//DTD SVG 1.1//EN" "http://www.w3.org/Graphics/SVG/1.1/DTD/svg11.dtd">
<svg version="1.1" id="Layer_1" xmlns="http://www.w3.org/2000/svg" xmlns:xlink="http://www.w3.org/1999/xlink" x="0px" y="0px"
	 width="626.572px" height="504.054px" viewBox="0 0 626.572 504.054" enable-background="new 0 0 626.572 504.054"
	 xml:space="preserve">
<g>
	<path d="M613.774,221.115c17.063,17.051,17.063,44.598,0,61.635l-208.48,208.439c-8.531,8.477-19.6,12.744-30.721,12.865
		c-11.23-0.121-22.299-4.268-30.832-12.865c-16.955-16.914-16.955-44.461,0-61.498l134.199-134.17H43.562
		C19.601,295.521,0,275.949,0,251.933c0-24.018,19.49-43.439,43.561-43.439H477.94L343.741,74.269
		c-16.955-16.982-16.955-44.582,0-61.594c17.012-16.9,44.599-16.9,61.553,0L613.774,221.115z"/>
</g>
</svg>
