<?xml version="1.0" encoding="utf-8"?>
<!-- Generator: Adobe Illustrator 16.0.0, SVG Export Plug-In . SVG Version: 6.00 Build 0)  -->
<!DOCTYPE svg PUBLIC "-//W3C//DTD SVG 1.1//EN" "http://www.w3.org/Graphics/SVG/1.1/DTD/svg11.dtd">
<svg version="1.1" id="Layer_1" xmlns="http://www.w3.org/2000/svg" xmlns:xlink="http://www.w3.org/1999/xlink" x="0px" y="0px"
	 width="1200px" height="1000px" viewBox="0 0 1200 1000" enable-background="new 0 0 1200 1000" xml:space="preserve">
<g>
	<path d="M900.831,469.088c17.064,17.051,17.064,44.598,0,61.635l-208.48,208.439c-8.533,8.477-19.6,12.744-30.721,12.865
		c-11.232-0.121-22.299-4.266-30.832-12.865c-16.955-16.914-16.955-44.461,0-61.498l134.199-134.17H330.618
		c-23.961,0-43.561-19.572-43.561-43.588s19.49-43.439,43.561-43.439h434.379L630.798,322.242
		c-16.955-16.982-16.955-44.582,0-61.594c17.012-16.9,44.598-16.9,61.553,0L900.831,469.088z M900.831,469.088"/>
</g>
</svg>
