<?xml version="1.0" encoding="utf-8"?>
<!-- Generator: Adobe Illustrator 16.0.0, SVG Export Plug-In . SVG Version: 6.00 Build 0)  -->
<!DOCTYPE svg PUBLIC "-//W3C//DTD SVG 1.1//EN" "http://www.w3.org/Graphics/SVG/1.1/DTD/svg11.dtd">
<svg version="1.1" id="Layer_1" xmlns="http://www.w3.org/2000/svg" xmlns:xlink="http://www.w3.org/1999/xlink" x="0px" y="0px"
	 width="877.894px" height="340.824px" viewBox="0 0 877.894 340.824" enable-background="new 0 0 877.894 340.824"
	 xml:space="preserve">
<g>
	<circle cx="414.117" cy="170.459" r="17.35"/>
	<rect x="413.462" y="31.418" width="1.309" height="35.953"/>
	<rect x="352.93" y="47.638" transform="matrix(0.8659 -0.5002 0.5002 0.8659 14.5853 185.6428)" width="1.308" height="35.954"/>
	
		<rect x="291.293" y="109.274" transform="matrix(-0.866 -0.5001 0.5001 -0.866 522.1214 359.7795)" width="35.952" height="1.308"/>
	
		<rect x="308.615" y="213.02" transform="matrix(-0.5002 -0.8659 0.8659 -0.5002 263.9221 614.3385)" width="1.308" height="35.955"/>
	<rect x="335.606" y="274.655" transform="matrix(-0.5001 0.866 -0.866 -0.5001 768.816 106.7874)" width="35.957" height="1.308"/>
	<rect x="413.464" y="273.551" width="1.309" height="35.957"/>
	
		<rect x="456.676" y="274.656" transform="matrix(0.4999 0.8661 -0.8661 0.4999 475.8296 -273.4064)" width="35.954" height="1.308"/>
	<rect x="500.99" y="230.342" transform="matrix(-0.866 -0.5001 0.5001 -0.866 852.8647 690.5616)" width="35.957" height="1.308"/>
	<rect x="500.99" y="109.271" transform="matrix(0.8661 -0.4999 0.4999 0.8661 14.5507 274.1637)" width="35.955" height="1.308"/>
	<rect x="456.673" y="64.956" transform="matrix(0.5 -0.866 0.866 0.5 180.4916 443.8544)" width="35.955" height="1.308"/>
	<path d="M588.909,132.663c-2.395-2.216-5.137-3.762-8.227-4.639c-0.522-0.147-1.059-0.265-1.593-0.388
		c-2.627-0.604-5.385-0.923-8.292-0.923c-1.631,0-3.429,0.167-5.387,0.495c-1.826,0.306-3.79,0.751-5.901,1.343
		c-4.375,1.225-9.711,3.703-16.011,7.437c2.451,2.566,5.132,4.199,8.05,4.899c1.346,0.323,2.741,0.485,4.187,0.485
		c1.687,0,3.44-0.22,5.262-0.659c1.633-0.35,3.033-0.672,4.201-0.963c0.964-0.239,2.032-0.357,3.16-0.399
		c0.232-0.008,0.449-0.038,0.688-0.038c3.731,0,6.474,1.286,8.225,3.849c1.75,2.568,2.624,5.894,2.624,9.975v56.784v9.012h16.801
		v-64.045c0-5.364-0.7-9.857-2.101-13.476C593.194,137.796,591.299,134.878,588.909,132.663z"/>
	<path d="M484.179,218.931v-71.222c0-3.499-0.437-6.792-1.313-9.885c-0.874-3.09-2.711-6.213-5.512-9.364h-12.6
		c0.933,4.086,1.603,7.963,2.015,11.638c0.406,3.675,0.61,7.148,0.61,10.412v68.42H484.179z"/>
	<path d="M538.511,141.41c-1.342-3.614-3.148-6.532-5.423-8.748s-4.93-3.762-7.963-4.639c-3.034-0.874-6.241-1.311-9.625-1.311
		c-3.148,0-6.823,0.611-11.021,1.837c-4.202,1.225-9.392,3.647-15.574,7.261c2.448,2.568,5.073,4.201,7.874,4.901
		c1.292,0.322,2.646,0.483,4.062,0.483c1.651,0,3.389-0.219,5.212-0.66c1.515-0.35,2.798-0.639,3.849-0.874
		c1.05-0.232,2.274-0.35,3.675-0.35c3.384,0,5.919,1.286,7.612,3.849c1.689,2.568,2.538,5.894,2.538,9.975v16.669l-6.517,0v1.309
		l6.517,0v47.818h16.798v-47.816l12.643,0.001v-1.309l-12.643-0.001v-14.92C540.524,149.521,539.853,145.029,538.511,141.41z"/>
	<rect y="91.714" width="16.1" height="127.217"/>
	<path d="M56.519,128.461H43.92c0.933,4.086,1.603,7.963,2.014,11.638c0.406,3.675,0.611,7.148,0.611,10.412v68.42h16.8v-71.222
		c0-3.499-0.437-6.792-1.314-9.885C61.157,134.735,59.32,131.612,56.519,128.461z"/>
	<path d="M112.254,132.663c-2.275-2.216-4.93-3.762-7.963-4.639c-3.034-0.874-6.241-1.311-9.625-1.311
		c-3.148,0-6.823,0.611-11.022,1.837c-4.202,1.225-9.392,3.647-15.574,7.261c2.448,2.568,5.073,4.201,7.874,4.901
		c1.292,0.322,2.646,0.483,4.062,0.483c1.652,0,3.389-0.219,5.212-0.66c1.515-0.35,2.798-0.639,3.849-0.874
		c1.05-0.232,2.274-0.35,3.675-0.35c3.384,0,5.919,1.286,7.613,3.849c1.689,2.568,2.538,5.894,2.538,9.975v65.796h16.798v-64.045
		c0-5.364-0.672-9.857-2.014-13.476C116.335,137.796,114.528,134.878,112.254,132.663z"/>
	<path d="M769.054,207.993c-2.098,0.412-4.316,0.613-6.649,0.613c-4.316,0-7.759-2.014-10.324-6.036
		c-2.565-4.024-3.849-9.069-3.849-15.137v-86.968l-15.4,4.899v23.097l-16.098,4.202v7.874h16.098v44.97
		c0,11.201,2.538,19.893,7.613,26.075c5.075,6.185,12.395,9.273,21.96,9.273c2.801,0,5.426-0.263,7.877-0.787
		c2.448-0.526,5.888-1.546,10.321-3.062l-3.849-11.024C773.718,206.917,771.155,207.586,769.054,207.993z"/>
	<path d="M769.23,140.536h9.975v-12.075h-24.674c1.165,3.386,2.888,6.244,5.162,8.577S765.145,140.536,769.23,140.536z"/>
	<path d="M696.085,140.449c-3.266-4.257-7.291-7.613-12.072-10.061c-4.787-2.451-10.21-3.675-16.274-3.675
		c-3.736,0-7.904,0.787-12.512,2.362c-4.61,1.574-8.778,4.405-12.513,8.487l-1.4,3.151l-0.35-2.801
		c-0.815-2.333-1.661-4.171-2.535-5.513c-0.877-1.339-2.072-2.652-3.588-3.938h-11.726c0.7,3.036,1.34,7.031,1.925,11.988
		c0.582,4.96,0.877,10.935,0.877,17.935v102.719h16.097V152.085c3.616-4.432,7.351-7.669,11.201-9.711
		c3.849-2.039,7.757-3.062,11.723-3.062c3.852,0,7.263,0.874,10.237,2.625s5.482,4.143,7.523,7.173
		c2.04,3.036,3.558,6.711,4.55,11.025c0.991,4.316,1.487,8.985,1.487,14c0,5.949-0.698,11.024-2.099,15.224
		s-3.237,7.672-5.513,10.411c-2.273,2.742-4.873,4.726-7.786,5.949c-2.665,1.118-5.376,1.68-8.135,1.68
		c-0.263,0-0.526-0.006-0.79-0.016c-0.246-0.007-0.488-0.011-0.729-0.011c-3.758,0-6.865,0.848-9.332,2.546
		c-2.625,1.812-4.756,4.173-6.389,7.089c3.15,1.166,6.182,1.95,9.1,2.361c2.914,0.406,5.715,0.613,8.4,0.613
		c5.249,0,10.322-1.078,15.224-3.237c4.899-2.157,9.213-5.222,12.949-9.188c3.731-3.964,6.736-8.776,9.011-14.437
		c2.274-5.658,3.412-11.985,3.412-18.985c0-6.649-0.846-12.862-2.538-18.638C701.83,149.724,699.351,144.709,696.085,140.449z"/>
	<path d="M168.075,132.663c-2.395-2.216-5.137-3.762-8.227-4.639c-3.092-0.874-6.386-1.311-9.885-1.311
		c-3.151,0-6.913,0.611-11.288,1.837c-4.375,1.225-9.711,3.703-16.011,7.437c2.451,2.566,5.132,4.199,8.05,4.899
		c1.345,0.323,2.741,0.485,4.187,0.485c1.686,0,3.44-0.22,5.262-0.659c1.633-0.35,3.033-0.672,4.201-0.963
		c1.163-0.289,2.448-0.437,3.849-0.437c3.731,0,6.474,1.286,8.224,3.849c1.75,2.568,2.625,5.894,2.625,9.975v65.796h16.8v-64.045
		c0-5.364-0.7-9.857-2.101-13.476C172.361,137.796,170.464,134.878,168.075,132.663z"/>
	<path d="M875.706,207.292c-0.409-3.675-0.611-7.143-0.611-10.411v-68.42h-16.273v71.221c0,3.499,0.438,6.798,1.311,9.885
		c0.877,3.096,2.715,6.213,5.513,9.364h12.249C876.846,214.847,876.115,210.967,875.706,207.292z"/>
	<path d="M841.867,206.022c-1.689,0-3.446,0.221-5.27,0.66c-1.636,0.35-2.946,0.672-3.938,0.961
		c-0.992,0.294-2.188,0.437-3.586,0.437c-3.736,0-6.447-1.28-8.137-3.849c-1.694-2.562-2.538-5.888-2.538-9.974v-65.796h-16.45
		v64.045c0,5.486,0.67,10.005,2.015,13.562c1.339,3.56,3.176,6.447,5.512,8.661c2.331,2.218,5.014,3.764,8.048,4.638
		c3.033,0.874,6.3,1.312,9.801,1.312c3.148,0,6.851-0.611,11.111-1.835c4.258-1.227,9.476-3.703,15.66-7.439
		c-2.448-2.563-5.134-4.199-8.05-4.899C844.702,206.183,843.31,206.022,841.867,206.022z"/>
	<path d="M553.938,242.483c-26.186,50.596-79.03,85.257-139.822,85.257c-62.883,0-117.257-37.089-142.423-90.536
		c-0.773,0.38-1.555,0.745-2.346,1.094c-3.261,1.437-6.6,2.562-9.991,3.41c27.038,58.456,86.236,99.116,154.76,99.116
		c68.22,0,127.196-40.302,154.397-98.341h-12.171H553.938z"/>
	<path d="M414.117,13.085c63.37,0,118.101,37.664,143.004,91.778c4.878-1.127,9.351-1.69,13.564-1.7
		C544.549,42.544,484.212,0,414.117,0c-70.413,0-130.987,42.928-156.93,103.986c4.432,0.722,8.673,1.932,12.706,3.604
		C294.192,52.019,349.689,13.085,414.117,13.085z"/>
	<path d="M263.249,215.046c3.521-1.973,6.707-4.468,9.554-7.49c3.731-3.964,6.736-8.776,9.011-14.437
		c2.274-5.658,3.412-11.985,3.412-18.985c0-1.018-0.027-2.021-0.066-3.019l24.214,0.002v47.813h15.573v-48.298
		c0-5.249,0.67-9.739,2.011-13.473c1.342-3.731,3.064-6.765,5.163-9.1c2.101-2.331,4.49-4.051,7.176-5.163
		c2.681-1.106,5.364-1.661,8.048-1.661c1.05,0,2.246,0.059,3.588,0.174c1.339,0.118,2.944,0.412,4.812,0.876l2.101-13.649
		c-3.386-0.933-6.243-1.4-8.574-1.4c-4.787,0-9.274,1.431-13.476,4.289c-4.199,2.859-7.467,6.504-9.798,10.935l-1.401,3.151v-3.151
		c-0.585-2.798-1.254-5.336-2.011-7.61c-0.762-2.274-2.072-4.403-3.938-6.389h-12.075c0.933,4.086,1.633,8.868,2.101,14.35
		c0.465,5.484,0.701,10.91,0.701,16.274v10.725l-24.278-0.002c-0.291-5.035-1.088-9.808-2.407-14.311
		c-1.692-5.773-4.171-10.787-7.437-15.047c-3.266-4.257-7.291-7.613-12.073-10.061c-0.355-0.182-0.722-0.343-1.084-0.512
		c-3.845-1.788-8.082-2.822-12.72-3.088c-0.812-0.046-1.633-0.075-2.469-0.075c-3.736,0-7.904,0.787-12.512,2.362
		c-4.61,1.574-8.778,4.405-12.512,8.487l-1.4,3.151l-0.35-2.801c-0.815-2.333-1.661-4.171-2.535-5.513
		c-0.876-1.339-2.072-2.652-3.588-3.938h-11.725c0.7,3.036,1.339,7.031,1.925,11.988c0.583,4.96,0.876,10.935,0.876,17.935v102.719
		h16.098V152.085c3.616-4.432,7.35-7.669,11.201-9.711c3.849-2.039,7.756-3.062,11.723-3.062c0.832,0,1.639,0.049,2.43,0.13
		c2.871,0.296,5.476,1.122,7.808,2.494c1.624,0.956,3.103,2.109,4.448,3.446c1.12,1.113,2.148,2.351,3.076,3.728
		c2.039,3.036,3.557,6.711,4.549,11.025c0.992,4.316,1.487,8.985,1.487,14c0,5.949-0.698,11.024-2.098,15.224
		s-3.238,7.672-5.512,10.411c-0.199,0.24-0.405,0.468-0.609,0.696c-2.127,2.381-4.52,4.137-7.178,5.253
		c-1.586,0.665-3.191,1.109-4.81,1.379c-1.101,0.185-2.208,0.301-3.324,0.301c-0.263,0-0.526-0.006-0.79-0.016
		c-0.246-0.007-0.489-0.011-0.729-0.011c-3.758,0-6.866,0.848-9.333,2.546c-2.625,1.812-4.756,4.173-6.389,7.089
		c3.151,1.166,6.182,1.95,9.1,2.361c2.914,0.406,5.714,0.613,8.4,0.613c2.121,0,4.212-0.186,6.275-0.537
		c3.044-0.52,6.027-1.413,8.948-2.7C261.019,216.23,262.149,215.662,263.249,215.046z"/>
	
		<rect x="365.885" y="95.068" transform="matrix(0.2234 0.9747 -0.9747 0.2234 408.387 -309.3599)" width="64.905" height="13.085"/>
	
		<rect x="387.241" y="204.128" transform="matrix(-0.9613 -0.2754 0.2754 -0.9613 694.3761 607.7354)" width="5.234" height="101.975"/>
</g>
</svg>
