<?xml version="1.0" encoding="utf-8"?>
<!-- Generator: Adobe Illustrator 16.0.0, SVG Export Plug-In . SVG Version: 6.00 Build 0)  -->
<!DOCTYPE svg PUBLIC "-//W3C//DTD SVG 1.1//EN" "http://www.w3.org/Graphics/SVG/1.1/DTD/svg11.dtd">
<svg version="1.1" id="Layer_1" xmlns="http://www.w3.org/2000/svg" xmlns:xlink="http://www.w3.org/1999/xlink" x="0px" y="0px"
	 width="1200px" height="1000px" viewBox="0 0 1200 1000" enable-background="new 0 0 1200 1000" xml:space="preserve">
<g>
	<g>
		<path d="M756.994,421.115c0-129.902-105.307-235.226-235.225-235.226S286.543,291.213,286.543,421.115
			c0,129.887,105.309,235.226,235.227,235.226S756.994,551.002,756.994,421.115L756.994,421.115z M521.77,597.551
			c-97.297,0-176.436-79.156-176.436-176.436s79.139-176.419,176.436-176.419c97.295,0,176.402,79.14,176.402,176.419
			S619.064,597.551,521.77,597.551L521.77,597.551z M521.77,597.551"/>
		<path d="M896.578,712.778L752.67,568.871c-21.43,33.322-49.791,61.685-83.178,83.146l143.939,143.941
			c22.99,22.955,60.223,22.955,83.146,0C919.535,773.001,919.535,735.735,896.578,712.778L896.578,712.778z M896.578,712.778"/>
	</g>
</g>
</svg>
