<?xml version="1.0" encoding="utf-8"?>
<!-- Generator: Adobe Illustrator 16.0.0, SVG Export Plug-In . SVG Version: 6.00 Build 0)  -->
<!DOCTYPE svg PUBLIC "-//W3C//DTD SVG 1.1//EN" "http://www.w3.org/Graphics/SVG/1.1/DTD/svg11.dtd">
<svg version="1.1" id="Layer_1" xmlns="http://www.w3.org/2000/svg" xmlns:xlink="http://www.w3.org/1999/xlink" x="0px" y="0px"
	 width="1200px" height="1000px" viewBox="0 0 1200 1000" enable-background="new 0 0 1200 1000" xml:space="preserve">
<path d="M915.546,464.919c-1.011-8.929-11.407-15.643-20.432-15.643c-29.071,0-54.893-17.074-65.723-43.498
	c-11.069-27.062-3.922-58.623,17.736-78.501c6.858-6.245,7.677-16.701,1.949-23.957c-14.896-18.915-31.814-35.989-50.296-50.802
	c-7.244-5.788-17.856-4.981-24.138,1.961c-18.915,20.949-52.896,28.746-79.175,17.784c-27.338-11.503-44.593-39.202-42.908-68.923
	c0.577-9.349-6.257-17.471-15.57-18.554c-23.704-2.744-47.625-2.828-71.426-0.192c-9.193,1.022-16.027,8.952-15.715,18.181
	c1.035,29.432-16.412,56.649-43.462,67.731c-25.966,10.602-59.729,2.876-78.597-17.904c-6.257-6.834-16.701-7.688-23.969-2.009
	c-19.012,14.932-36.339,32.03-51.355,50.789c-5.872,7.292-5.006,17.856,1.877,24.113c22.116,20.022,29.239,51.849,17.76,79.235
	c-10.974,26.099-38.047,42.908-69.067,42.908c-10.083-0.325-17.254,6.438-18.337,15.595c-2.816,23.849-2.84,48.13-0.169,72.195
	c1.035,8.952,11.744,15.618,20.841,15.618c27.65-0.697,54.171,16.389,65.312,43.486c11.118,27.073,3.971,58.623-17.735,78.524
	c-6.787,6.233-7.653,16.678-1.926,23.921c14.729,18.795,31.67,35.882,50.2,50.802c7.268,5.872,17.856,5.054,24.162-1.901
	c19.011-21.009,53.016-28.781,79.174-17.784c27.411,11.455,44.642,39.154,42.933,68.875c-0.529,9.361,6.306,17.52,15.595,18.578
	c12.129,1.396,24.354,2.118,36.579,2.118c11.623,0,23.247-0.626,34.847-1.925c9.217-1.011,16.027-8.953,15.738-18.193
	c-1.083-29.408,16.389-56.65,43.414-67.72c26.135-10.637,59.754-2.84,78.646,17.904c6.257,6.835,16.629,7.652,23.969,1.997
	c18.963-14.896,36.242-31.982,51.355-50.777c5.871-7.292,5.029-17.856-1.901-24.138c-22.092-19.998-29.288-51.836-17.784-79.175
	c10.781-25.749,36.868-43.053,64.952-43.053l3.922,0.097c9.097,0.746,17.472-6.281,18.579-15.57
	C918.217,513.241,918.241,488.96,915.546,464.919L915.546,464.919z M600.531,606.735c-58.382,0-105.887-47.481-105.887-105.899
	c0-58.395,47.505-105.899,105.887-105.899c58.431,0,105.911,47.505,105.911,105.899
	C706.442,559.254,658.962,606.735,600.531,606.735L600.531,606.735z M600.531,606.735"/>
</svg>
